<?xml version="1.0" encoding="utf-8"?>
<!-- Svg Vector Icons : http://www.onlinewebfonts.com/icon -->
<!DOCTYPE svg PUBLIC "-//W3C//DTD SVG 1.1//EN" "http://www.w3.org/Graphics/SVG/1.1/DTD/svg11.dtd">
<svg version="1.1" xmlns="http://www.w3.org/2000/svg" xmlns:xlink="http://www.w3.org/1999/xlink" x="0px" y="0px" viewBox="0 0 256 256" enable-background="new 0 0 256 256" xml:space="preserve">
<metadata> Svg Vector Icons : http://www.onlinewebfonts.com/icon </metadata>
<g><g><g><path fill="#ffffff" d="M119.8,10.1c-0.9,0.1-3.8,0.4-6.3,0.7c-49.3,5.6-90.9,43.6-101,92.5c-1.9,9.4-2.4,14.4-2.4,24.8c0,10.4,0.5,15.4,2.4,24.8c9.4,45.2,45.6,81.4,90.8,90.8c9.4,1.9,14.3,2.4,24.8,2.4s15.4-0.5,24.8-2.4c45.2-9.4,81.4-45.6,90.8-90.8c1.9-9.4,2.4-14.4,2.4-24.8c0-10.4-0.5-15.4-2.4-24.8c-5.3-25.5-19.6-49.2-39.7-65.9c-17.3-14.4-36.9-23.1-59.6-26.5C139.5,10.3,123.2,9.7,119.8,10.1z M144.2,21.6c22.4,3.6,42.1,13.4,58.3,29.1c9.7,9.5,15.8,17.7,21.9,29.9c5.1,10.3,8.2,20,10.1,31.6c1.2,7.1,1.2,24.4,0,31.7c-3.5,22.5-13.2,42.3-28.7,58.4c-16.9,17.5-37.7,28.5-61.9,32.4c-7.1,1.2-24.4,1.2-31.7,0c-18.1-2.9-33.8-9.4-48.7-20.4c-5.9-4.4-17.3-15.7-21.6-21.6C31,177.8,24.4,162.1,21.5,144c-1.2-7.2-1.2-24.5,0-31.7c2.9-18.2,9.4-33.8,20.4-48.7c4.4-5.9,15.7-17.3,21.6-21.6C80.2,29.6,97.7,23,119,20.7C123.2,20.3,139.6,20.9,144.2,21.6z"/><path fill="#ffffff" d="M122.4,71.9c-7.9,1.5-16.1,8-19.6,15.5c-5.2,11.1-3.2,23,5.5,31.7c5.6,5.6,11.6,8.1,19.4,8.2c7.9,0,13.8-2.3,19.6-7.8c9-8.5,11.2-21.4,5.6-32.7C147.3,75.7,134.8,69.5,122.4,71.9z"/><path fill="#ffffff" d="M122.6,137.3c-18.6,3.2-34,22.1-37.4,45.9l-0.3,2.1H128h43.1l-0.3-2.3c-0.5-4.4-3-12.9-4.8-17.3c-1-2.4-3.1-6.3-4.6-8.5C151.8,142.4,137,134.8,122.6,137.3z"/></g></g></g>
</svg>