<svg class="svg-icon" style="width: 1em; height: 1em;vertical-align: middle;fill: currentColor;overflow: hidden;" viewBox="0 0 1024 1024" version="1.1" xmlns="http://www.w3.org/2000/svg"><path d="M915.6 884.2l-273.4-307c-1.1-1.2-2.3-2.3-3.5-3.2 35.4-48.9 56.3-109 56.3-174 0-164-133-297-297-297S101 236 101 400s133 297 297 297c83.6 0 159.1-34.6 213.1-90.1l272.4 305.9c7.9 8.9 21.5 9.6 30.3 1.8 8.9-8 9.7-21.5 1.8-30.4zM398 651c-138.6 0-251-112.4-251-251s112.4-251 251-251 251 112.4 251 251-112.4 251-251 251z" fill="#282828" /></svg>