<?xml version="1.0" standalone="no"?>
<!DOCTYPE svg PUBLIC "-//W3C//DTD SVG 20010904//EN"
 "http://www.w3.org/TR/2001/REC-SVG-20010904/DTD/svg10.dtd">
<svg version="1.0" xmlns="http://www.w3.org/2000/svg"
  viewBox="0 0 2624.000000 1850.000000"
 preserveAspectRatio="xMidYMid meet">

<g transform="translate(0.000000,1850.000000) scale(0.100000,-0.100000)"
fill="#000000" stroke="none">
<path d="M1369 18447 c-631 -325 -1106 -870 -1325 -1521 l-44 -131 0 -7447 0
-7447 26 -83 c115 -366 325 -723 596 -1013 350 -375 851 -666 1351 -784 l89
-21 11016 0 c10834 0 11018 0 11097 19 463 111 913 358 1256 689 433 417 697
924 785 1507 l22 150 1 6955 c1 7523 4 7044 -50 7310 -154 757 -668 1429
-1381 1804 l-125 66 -11605 0 -11605 0 -104 -53z m16626 -1914 c457 -70 823
-209 1180 -448 691 -464 1115 -1185 1175 -2000 12 -164 10 -9498 -2 -9545 -4
-14 -12 -65 -18 -115 -35 -285 -149 -625 -297 -890 -366 -656 -989 -1129
-1733 -1315 -138 -35 -257 -55 -405 -70 -79 -8 -1968 -10 -6740 -8 -6297 3
-6635 4 -6735 21 -822 139 -1480 559 -1913 1222 -234 359 -374 782 -407 1232
-8 105 -10 1510 -8 4833 l4 4685 22 133 c67 413 197 751 407 1067 472 706
1235 1148 2100 1214 61 5 3062 8 6670 7 l6560 -2 140 -21z m5689 -1473 c346
-68 625 -217 871 -464 238 -238 376 -493 440 -812 84 -412 -2 -828 -246 -1194
-93 -139 -291 -335 -439 -433 -196 -130 -396 -212 -632 -259 -96 -19 -143 -23
-318 -22 -182 0 -219 3 -331 27 -510 108 -922 414 -1154 859 -64 124 -125 300
-151 443 -26 138 -26 410 0 550 128 700 694 1222 1436 1325 112 15 401 4 524
-20z m-30 -4761 c237 -40 501 -148 696 -287 121 -86 296 -260 383 -382 116
-164 222 -404 261 -595 163 -793 -306 -1584 -1094 -1844 -547 -180 -1157 -71
-1600 286 -580 468 -762 1252 -443 1920 143 300 413 578 712 731 350 180 701
235 1085 171z m-123 -4340 c872 -88 1519 -804 1494 -1650 -18 -596 -372 -1128
-925 -1393 -261 -125 -497 -173 -802 -163 -243 8 -414 47 -632 143 -489 217
-846 665 -943 1184 -27 146 -24 440 6 580 73 340 217 599 468 841 352 340 843
509 1334 458z"/>
</g>
</svg>
